<?xml version="1.0" encoding="UTF-8"?>
<svg width="700pt" height="700pt" version="1.1" viewBox="0 0 700 700" xmlns="http://www.w3.org/2000/svg">
 <path d="m90.266 60.219h-0.28125c-11.043 0-19.984 8.9414-19.984 19.984s8.9414 19.984 19.984 19.984h0.29688 519.45 0.28125c11.043 0 19.984-8.9414 19.984-19.984s-8.9414-19.984-19.984-19.984h-0.29688zm0 199.8h-0.28125c-11.043 0-19.984 8.9414-19.984 19.984s8.9414 19.984 19.984 19.984h0.29688 519.45 0.28125c11.043 0 19.984-8.9414 19.984-19.984s-8.9414-19.984-19.984-19.984h-0.29688zm0 199.8h-0.28125c-11.043 0-19.984 8.9414-19.984 19.984s8.9414 19.984 19.984 19.984h0.29688 519.45 0.28125c11.043 0 19.984-8.9414 19.984-19.984s-8.9414-19.984-19.984-19.984h-0.29688z"/>
</svg>
